<?xml version="1.0" standalone="no"?>
<!DOCTYPE svg PUBLIC "-//W3C//DTD SVG 20010904//EN"
 "http://www.w3.org/TR/2001/REC-SVG-20010904/DTD/svg10.dtd">
<svg version="1.0" xmlns="http://www.w3.org/2000/svg"
 width="505.000000pt" height="499.000000pt" viewBox="0 0 505.000000 499.000000"
 preserveAspectRatio="xMidYMid meet">

<g transform="translate(0.000000,499.000000) scale(0.100000,-0.100000)"
fill="#000000" stroke="none">
<path d="M2352 4798 c-1677 -146 -1941 -172 -1990 -190 -87 -32 -179 -129
-237 -249 -67 -141 -87 -226 -92 -409 -6 -179 9 -286 59 -438 86 -259 281
-452 459 -455 46 -1 3377 286 3905 336 149 14 295 168 363 382 42 128 55 235
48 389 -13 323 -138 603 -327 732 -70 47 -152 75 -220 73 -19 -1 -905 -77
-1968 -171z m-1755 -509 c128 -62 223 -268 223 -483 -1 -173 -43 -291 -131
-370 -81 -72 -157 -82 -244 -31 -122 71 -203 240 -213 445 -9 204 63 380 183
443 44 23 130 21 182 -4z"/>
<path d="M4432 3213 c106 -212 141 -292 162 -373 72 -282 58 -554 -50 -979
-30 -117 -54 -216 -54 -219 0 -2 36 -2 81 1 160 11 277 101 364 280 66 137 87
232 92 417 4 137 2 169 -20 276 -39 190 -111 340 -221 460 -45 50 -76 73 -140
104 -71 35 -92 40 -150 40 -37 0 -66 -3 -64 -7z"/>
<path d="M3100 3105 c-509 -46 -1070 -96 -1247 -111 l-322 -29 28 -30 c124
-133 217 -339 242 -535 28 -230 -6 -453 -141 -925 -131 -457 -164 -712 -125
-940 29 -164 116 -351 219 -470 l44 -50 1248 108 c687 59 1253 108 1257 107 4
0 -15 27 -42 60 -95 113 -160 246 -203 408 -19 74 -22 112 -22 257 0 222 21
335 139 755 119 424 139 532 139 765 1 209 -14 280 -91 445 -44 94 -167 271
-187 269 -6 -1 -427 -38 -936 -84z m507 -420 c7 -27 15 -75 19 -106 l6 -57
-48 -6 c-38 -5 -722 -66 -738 -66 -2 0 -6 26 -10 58 -4 31 -13 81 -20 110 -8
28 -13 52 -13 53 9 3 739 66 761 65 27 -1 31 -6 43 -51z m-908 -62 c36 -136
49 -294 33 -416 -6 -43 -12 -80 -14 -82 -4 -4 -455 -45 -495 -45 l-29 0 1 183
c0 143 -4 199 -19 260 -10 43 -15 81 -12 85 6 5 407 46 498 51 23 1 29 -4 37
-36z m941 -235 c-1 -46 -16 -177 -22 -183 -4 -4 -703 -65 -745 -65 l-31 0 5
108 c3 59 7 108 8 110 1 1 172 17 381 36 208 18 385 34 392 35 8 1 12 -13 12
-41z m90 -390 c-1 -17 -50 -191 -54 -196 -6 -5 -1493 -141 -1558 -142 l-26 0
26 103 27 102 740 66 c670 60 845 74 845 67z m-96 -365 c-4 -16 -17 -62 -28
-103 l-22 -75 -74 -7 c-485 -44 -1503 -129 -1506 -126 -2 3 9 49 24 104 l27
99 740 66 c407 37 764 67 793 68 52 1 52 1 46 -26z m-85 -320 c0 -5 -8 -48
-18 -98 -17 -90 -17 -90 -52 -98 -19 -4 -320 -32 -669 -62 -349 -30 -688 -60
-753 -66 -65 -6 -121 -8 -124 -5 -5 5 24 197 30 202 4 4 1487 132 1535 133 28
0 52 -2 51 -6z m-49 -433 c0 -93 -1 -100 -20 -100 -11 0 -93 -7 -182 -15 -389
-35 -1328 -115 -1357 -115 l-31 0 0 100 0 100 28 0 c15 1 349 29 742 64 393
35 739 64 768 65 l52 1 0 -100z"/>
<path d="M865 2909 c-296 -28 -313 -30 -372 -59 -85 -42 -161 -127 -218 -243
-62 -130 -86 -233 -93 -398 -10 -270 59 -518 193 -696 62 -83 115 -128 200
-169 62 -30 78 -34 155 -34 102 0 562 39 571 48 11 13 141 503 165 625 65 322
30 519 -125 724 -82 107 -98 137 -107 192 -6 36 -10 41 -33 40 -14 -1 -165
-14 -336 -30z m-111 -366 c44 -23 109 -95 143 -160 103 -191 104 -458 3 -625
-49 -82 -101 -120 -175 -126 -77 -6 -131 16 -193 82 -56 59 -100 140 -128 236
-28 96 -26 281 3 375 23 74 80 165 124 197 64 48 154 56 223 21z"/>
</g>
</svg>
